<svg width="186" height="169" viewBox="0 0 186 169" fill="none" xmlns="http://www.w3.org/2000/svg">
<path d="M131.977 88.0457C128.826 88.3488 126.255 91.3303 126.441 94.4923C126.486 96.8953 128.06 99.1592 130.28 100.074C132.831 101.202 136.054 100.341 137.707 98.0972C139.453 95.8903 139.413 92.5112 137.616 90.3499C136.296 88.6773 134.089 87.7828 131.977 88.0457ZM106.832 88.0456C104.072 88.3243 101.69 90.6541 101.354 93.4101C101.025 95.6127 101.977 97.9424 103.765 99.2747C105.38 100.538 107.633 100.903 109.572 100.242C111.791 99.5206 113.493 97.4696 113.796 95.161C114.095 93.094 113.292 90.9116 111.709 89.5506C110.393 88.3857 108.575 87.8357 106.832 88.0456ZM81.6954 88.0454C80.9079 88.1355 80.1415 88.3772 79.4483 88.7588C77.0242 90.018 75.6589 92.9785 76.2982 95.641C76.8844 98.594 79.8458 100.813 82.8434 100.551C85.7392 100.419 88.3105 98.0249 88.6551 95.1449C88.9466 93.1353 88.1792 91.0025 86.6656 89.6447C85.3449 88.4184 83.4795 87.8322 81.6945 88.0453M56.5333 88.0495C54.5406 88.271 52.7027 89.526 51.7592 91.294C50.713 93.1966 50.7586 95.6451 51.8906 97.5032C53.3502 100.042 56.706 101.252 59.449 100.185C62.3321 99.1843 64.1488 95.8952 63.4186 92.922C62.8112 89.846 59.6378 87.5991 56.5333 88.0495ZM144.553 62.9042C142.235 63.1501 140.156 64.8111 139.38 67.0094C138.36 69.6922 139.483 72.9685 141.944 74.4536C144.409 76.0817 147.976 75.5941 149.925 73.3745C151.996 71.1974 152.119 67.5183 150.188 65.214C148.875 63.5361 146.664 62.6382 144.553 62.9042ZM119.412 62.9044C116.262 63.2086 113.683 66.1891 113.872 69.3522C113.896 72.5595 116.742 75.3929 119.945 75.4181C123.058 75.5941 125.999 73.1053 126.367 70.0167C126.663 67.9985 125.896 65.8659 124.378 64.5007C123.062 63.2733 121.192 62.6914 119.412 62.9044ZM94.255 62.9045C91.9581 63.1631 89.8828 64.7997 89.1078 66.9769C88.1443 69.4826 89.0294 72.5341 91.1917 74.1293C93.3943 75.8803 96.7777 75.8358 98.943 74.035C100.407 72.8701 101.297 71.0206 101.284 69.1464C101.297 67.4038 100.534 65.6772 99.2419 64.5079C97.9212 63.2731 96.043 62.687 94.2548 62.9042M69.1063 62.9085C67.2037 63.1215 65.4486 64.2737 64.4723 65.9145C63.4515 67.5998 63.2957 69.7738 64.0748 71.5821C65.1496 74.2479 68.2085 75.9003 71.0302 75.3142C73.6187 74.8627 75.7512 72.624 76.083 70.0156C76.3745 67.9975 75.6156 65.8732 74.0977 64.5081C72.7728 63.2732 70.8989 62.6827 69.1063 62.9085ZM157.11 37.7601C155.207 37.9774 153.448 39.1296 152.471 40.7705C151.475 42.4113 151.302 44.5183 152.012 46.2992C152.96 48.7879 155.617 50.4861 158.274 50.2687C161.17 50.1288 163.733 47.7386 164.086 44.8629C164.373 42.8458 163.606 40.7175 162.089 39.3554C160.769 38.129 158.894 37.5428 157.11 37.7601ZM131.977 37.7602C130.07 37.9732 128.303 39.1339 127.327 40.7822C126.437 42.2428 126.203 44.0722 126.675 45.7163C127.175 47.5257 128.545 49.0593 130.271 49.7844C132.819 50.9132 136.042 50.06 137.703 47.8245C139.454 45.6177 139.417 42.2301 137.613 40.0645C136.296 38.3919 134.09 37.4973 131.977 37.7602ZM106.833 37.7602C105.02 37.9616 103.335 39.0152 102.333 40.5404C101.214 42.2098 100.98 44.4326 101.73 46.2981C102.366 47.9506 103.753 49.2884 105.413 49.8946C107.965 50.8793 111.073 49.9317 112.644 47.7005C114.318 45.4937 114.24 42.1845 112.464 40.0604C111.152 38.391 108.941 37.4932 106.834 37.7593M81.6968 37.755C79.5971 37.9893 77.6776 39.3672 76.7713 41.2741C75.9923 42.8736 75.9467 44.8016 76.6441 46.4341C77.6288 48.8539 80.2406 50.482 82.849 50.269C85.7405 50.1291 88.3037 47.7432 88.6564 44.8717C88.9479 42.8535 88.1805 40.7208 86.6669 39.36C85.3462 38.1337 83.4807 37.5518 81.6958 37.7563M17.2372 0.147564C21.3308 -0.37288 25.5833 0.492036 29.1309 2.60453C33.3591 5.08163 36.5496 9.26937 37.7972 14.0095C38.7978 17.6388 38.3261 21.4322 38.4332 25.1443C84.4646 25.14 130.488 25.1443 176.516 25.1443C178.883 25.1072 181.389 25.7018 183.149 27.3628C184.785 28.8636 185.474 31.1934 185.228 33.3674C185.067 35.3315 184.157 37.1079 183.406 38.8961C174.445 59.7953 165.483 80.6945 156.523 101.599C155.288 104.404 153.225 106.782 150.826 108.669C148.078 110.819 144.818 112.377 141.36 112.943C139.802 113.213 138.215 113.131 136.64 113.144H20.9618C19.9771 113.153 18.9691 113.083 18.0046 113.346C16.2292 113.793 14.6912 115.072 13.9038 116.729C13.0717 118.447 13.0961 120.56 13.9695 122.258C14.7199 123.754 16.0936 124.911 17.6815 125.419C18.928 125.825 20.253 125.694 21.545 125.715H149.803C152.624 125.728 155.45 125.682 158.272 125.735C161.06 125.854 163.558 128.089 164.034 130.833C164.398 132.695 163.853 134.7 162.598 136.123C161.385 137.538 159.518 138.341 157.657 138.284H22.5204C20.2935 138.271 18.0337 138.387 15.8396 137.907C9.92611 136.75 4.72926 132.551 2.32621 127.03C0.415108 122.748 0.206311 117.754 1.73582 113.329C3.67128 107.567 8.57241 102.911 14.4286 101.287C18.1447 100.184 22.053 100.68 25.8624 100.57C25.8582 73.332 25.8666 46.0942 25.8582 18.8563C25.8709 16.8795 24.8777 14.9397 23.2825 13.7835C21.2686 12.2741 18.341 12.1713 16.2285 13.5376C14.4245 14.6526 13.2839 16.7321 13.2882 18.8533C13.2924 20.9244 12.2177 22.9541 10.4792 24.0862C8.44517 25.4769 5.58221 25.4885 3.54819 24.0947C1.86711 23.004 0.772308 21.0675 0.730791 19.062C0.640696 14.3739 2.43306 9.69508 5.58655 6.23351C8.5768 2.89892 12.7878 0.688793 17.2385 0.147183" fill="black" fill-opacity="0.04"/>
<path d="M36.5737 143.996C39.285 143.598 42.1268 144.086 44.5223 145.431C47.0937 146.846 49.1235 149.204 50.1772 151.943C51.2191 154.642 51.2731 157.706 50.3457 160.445C49.4066 163.255 47.4254 165.695 44.891 167.217C42.557 168.631 39.7482 169.227 37.0369 168.922C33.9937 168.598 31.1066 167.081 29.0682 164.804C27.0056 162.54 25.8533 159.489 25.865 156.434C25.8448 153.186 27.1571 149.946 29.4571 147.645C31.3395 145.684 33.8865 144.393 36.5726 143.994" fill="black" fill-opacity="0.04"/>
<path d="M149.711 143.996C153.677 143.377 157.902 144.799 160.645 147.736C163.352 150.521 164.631 154.601 163.984 158.432C163.426 162 161.232 165.26 158.152 167.139C154.842 169.205 150.539 169.579 146.931 168.102C143.806 166.86 141.209 164.324 139.947 161.204C138.839 158.53 138.708 155.471 139.561 152.71C140.914 148.182 145.028 144.639 149.711 143.996Z" fill="black" fill-opacity="0.04"/>
</svg>
