<svg width="34" height="32" viewBox="0 0 34 32" fill="none" xmlns="http://www.w3.org/2000/svg">
<path d="M23.7298 15.9181C23.1603 15.9729 22.6953 16.512 22.7289 17.0836C22.7371 17.5181 23.0217 17.9274 23.423 18.0928C23.8842 18.2967 24.467 18.1411 24.7657 17.7354C25.0815 17.3364 25.0743 16.7255 24.7494 16.3347C24.5107 16.0323 24.1117 15.8706 23.7298 15.9181ZM19.1839 15.9181C18.6848 15.9685 18.2541 16.3897 18.1933 16.888C18.1339 17.2862 18.306 17.7074 18.6293 17.9483C18.9213 18.1767 19.3286 18.2426 19.6792 18.1232C20.0803 17.9927 20.3881 17.6219 20.4429 17.2045C20.4969 16.8308 20.3516 16.4363 20.0655 16.1902C19.8275 15.9796 19.4989 15.8802 19.1839 15.9181ZM14.6392 15.9181C14.4969 15.9344 14.3583 15.9781 14.233 16.047C13.7947 16.2747 13.5479 16.8099 13.6635 17.2913C13.7694 17.8252 14.3049 18.2263 14.8468 18.179C15.3703 18.1552 15.8352 17.7223 15.8975 17.2016C15.9502 16.8383 15.8115 16.4527 15.5378 16.2072C15.2991 15.9855 14.9618 15.8795 14.6391 15.918M10.0901 15.9188C9.72982 15.9589 9.39754 16.1858 9.22696 16.5054C9.03782 16.8494 9.04606 17.292 9.25073 17.628C9.5146 18.087 10.1213 18.3058 10.6172 18.1128C11.1385 17.9319 11.4669 17.3373 11.3349 16.7997C11.2251 16.2436 10.6514 15.8374 10.0901 15.9188ZM26.0035 11.3727C25.5844 11.4172 25.2086 11.7174 25.0683 12.1149C24.8838 12.5999 25.0869 13.1923 25.5319 13.4608C25.9774 13.7551 26.6225 13.6669 26.9747 13.2657C27.3491 12.8721 27.3714 12.2069 27.0222 11.7903C26.785 11.4869 26.3852 11.3246 26.0035 11.3727ZM21.4582 11.3727C20.8886 11.4277 20.4224 11.9666 20.4565 12.5384C20.4609 13.1183 20.9754 13.6306 21.5546 13.6351C22.1174 13.6669 22.649 13.217 22.7157 12.6586C22.7691 12.2937 22.6304 11.9081 22.356 11.6613C22.1182 11.4394 21.7799 11.3342 21.4582 11.3727ZM16.9099 11.3727C16.4947 11.4195 16.1195 11.7154 15.9794 12.109C15.8052 12.562 15.9652 13.1137 16.3561 13.4021C16.7543 13.7187 17.366 13.7107 17.7575 13.3851C18.0222 13.1745 18.1831 12.8401 18.1808 12.5012C18.1831 12.1862 18.0451 11.874 17.8115 11.6626C17.5728 11.4394 17.2332 11.3334 16.9099 11.3727M12.3632 11.3735C12.0192 11.412 11.7019 11.6203 11.5254 11.9169C11.3409 12.2216 11.3127 12.6147 11.4535 12.9416C11.6479 13.4236 12.2009 13.7223 12.7111 13.6163C13.179 13.5347 13.5646 13.13 13.6246 12.6584C13.6773 12.2935 13.54 11.9095 13.2656 11.6627C13.0261 11.4394 12.6873 11.3326 12.3632 11.3735ZM28.2737 6.8268C27.9297 6.86608 27.6116 7.07439 27.4351 7.37105C27.255 7.6677 27.2237 8.04864 27.3521 8.3706C27.5234 8.82056 28.0038 9.12757 28.4843 9.08827C29.0078 9.06298 29.4712 8.63085 29.535 8.11094C29.5869 7.74626 29.4482 7.36148 29.174 7.11521C28.9352 6.89349 28.5962 6.78751 28.2737 6.8268ZM23.7299 6.82681C23.3851 6.86532 23.0657 7.07516 22.8891 7.37316C22.7282 7.63723 22.686 7.96799 22.7713 8.26523C22.8617 8.59235 23.1093 8.86963 23.4215 9.00071C23.882 9.2048 24.4648 9.05053 24.7651 8.64638C25.0816 8.2474 25.0749 7.63495 24.7488 7.24342C24.5108 6.94102 24.1118 6.77928 23.7299 6.82681ZM19.1839 6.82681C18.8562 6.86322 18.5515 7.0537 18.3705 7.32946C18.1681 7.63128 18.1257 8.03314 18.2614 8.37042C18.3764 8.66917 18.627 8.91104 18.9273 9.02063C19.3886 9.19866 19.9506 9.02734 20.2346 8.62395C20.5372 8.22498 20.523 7.6267 20.202 7.24268C19.9648 6.94086 19.5651 6.77855 19.1841 6.82664M14.6395 6.82588C14.2599 6.86823 13.9129 7.11735 13.749 7.46211C13.6082 7.75128 13.5999 8.09986 13.726 8.39499C13.904 8.83249 14.3762 9.12684 14.8478 9.08833C15.3706 9.06304 15.834 8.63167 15.8978 8.11252C15.9505 7.74765 15.8117 7.36208 15.5381 7.11605C15.2993 6.89434 14.962 6.78913 14.6393 6.82611M2.9856 0.0266787C3.72569 -0.0674144 4.49453 0.0889572 5.13591 0.470883C5.90033 0.918728 6.47716 1.67584 6.70272 2.53284C6.88363 3.18899 6.79835 3.87482 6.81771 4.54593C15.1399 4.54517 23.4606 4.54593 31.7823 4.54593C32.2102 4.53922 32.6633 4.64673 32.9813 4.94702C33.2772 5.21837 33.4018 5.63957 33.3573 6.03262C33.3282 6.38772 33.1636 6.70889 33.0279 7.03218C31.4079 10.8106 29.7876 14.5891 28.1675 18.3685C27.9443 18.8756 27.5714 19.3056 27.1377 19.6467C26.6408 20.0353 26.0513 20.317 25.4262 20.4194C25.1445 20.4682 24.8577 20.4535 24.5729 20.4558H3.65898C3.48095 20.4573 3.29871 20.4447 3.12434 20.4922C2.80336 20.573 2.5253 20.8044 2.38293 21.1039C2.2325 21.4145 2.23691 21.7964 2.39481 22.1034C2.53049 22.374 2.77884 22.5831 3.06593 22.6751C3.29129 22.7485 3.53083 22.7247 3.76441 22.7285H26.9526C27.4627 22.7308 27.9736 22.7226 28.4838 22.7322C28.988 22.7536 29.4394 23.1578 29.5255 23.6537C29.5914 23.9904 29.4929 24.353 29.266 24.6102C29.0466 24.866 28.7091 25.0112 28.3726 25.0009H3.94077C3.53815 24.9986 3.1296 25.0195 2.73292 24.9327C1.6638 24.7236 0.724237 23.9644 0.28978 22.9663C-0.0557353 22.1921 -0.0934844 21.2891 0.183041 20.4891C0.532961 19.4474 1.41905 18.6057 2.47782 18.3122C3.14967 18.1127 3.85626 18.2023 4.54498 18.1824C4.54421 13.258 4.54575 8.33354 4.54421 3.40911C4.54651 3.05171 4.36695 2.701 4.07854 2.49197C3.71444 2.21908 3.18515 2.2005 2.80323 2.44751C2.47708 2.64911 2.27086 3.02507 2.27164 3.40855C2.27241 3.783 2.07809 4.14997 1.76379 4.35464C1.39605 4.60606 0.878445 4.60817 0.510707 4.35617C0.206778 4.15898 0.00884424 3.80888 0.00133837 3.44629C-0.0149503 2.59872 0.309098 1.75281 0.87923 1.12698C1.41985 0.524106 2.18118 0.12453 2.98583 0.0266099" fill="#1875E8"/>
<path d="M6.48152 27.299C6.97172 27.2272 7.48549 27.3153 7.91857 27.5585C8.38348 27.8143 8.75045 28.2407 8.94094 28.7359C9.12932 29.2238 9.13909 29.7778 8.97141 30.273C8.80163 30.781 8.44345 31.2222 7.98525 31.4973C7.56327 31.753 7.05545 31.8607 6.56527 31.8057C6.01508 31.747 5.4931 31.4728 5.12458 31.0612C4.75166 30.6518 4.54334 30.1001 4.54545 29.5478C4.54181 28.9607 4.77905 28.3748 5.19488 27.9588C5.53522 27.6043 5.9957 27.3709 6.48133 27.2988" fill="#1875E8"/>
<path d="M26.9362 27.2991C27.6531 27.1872 28.4169 27.4444 28.9129 27.9754C29.4023 28.4788 29.6336 29.2166 29.5165 29.9091C29.4157 30.5542 29.019 31.1436 28.4622 31.4832C27.8637 31.8569 27.0858 31.9244 26.4335 31.6574C25.8686 31.4328 25.3991 30.9744 25.1709 30.4103C24.9706 29.9268 24.9468 29.3737 25.1011 28.8747C25.3456 28.056 26.0894 27.4154 26.9362 27.2991Z" fill="#1875E8"/>
</svg>
